REM MD5 69d09f3410e7b9178683cf92423c2d14
FILE "Railroad Tycoon II (Europe) (En,Fr,De).bin" BINARY
  TRACK 01 MODE2/2352
    INDEX 01 00:00:00
  TRACK 02 AUDIO
    INDEX 00 42:23:20
    INDEX 01 42:25:20
  TRACK 03 AUDIO
    INDEX 00 44:41:00
    INDEX 01 44:43:00
REM LEADOUT 47:44:04
